 http://imageshack.us/m/703/4120/72389033.jpg

Country.......: United Kingdom, France, Algeria
Genre.........: Drama
Date release..: 10.02.2009 [World]
Director......: Rachid Bouchareb
Writers.......: Rachid Bouchareb, Olivier Lorelle
Duration......: 94 min.
More..........: http://www.imdb.com/title/tt1227787
Trailer.......: http://www.imdb.com/video/imdblink/vi1452803097
Trailer.......:

Pilot :
After traveling to London to check on their missing children in the wake of the 2005 terror attack on the city, two strangers come to discover their respective children had been living together at the time of the attacks.

Cats :
Brenda Blethyn   	 ...  	Elisabeth
Sotigui Kouyaté 	... 	Ousmane
Francis Magee 	... 	Inspector 1
Sami Bouajila 	... 	Imam
Roschdy Zem 	... 	Butcher
Marc Baylis 	... 	Edward
Bernard Blancan 	... 	Ouvrier forestier
Aurélie Eltvedt 	... 	Guide chapelle
Diveen Henry 	... 	Female inspector
Gurdepak Chaggar 	... 	Travel agent 

Data Technical :
!!! SAMPLE !!!
Audio.....: English
Subtitles.: Hard Dutch, English .srt, Polish .txt
Format                           : AVI
Format/Info                      : Audio Video Interleave
File size                        : 700 MiB
Duration                         : 1h 34mn
Overall bit rate                 : 1 040 Kbps
Writing application              : VirtualDubMod 1.5.4.1 (build 2178/release)
Writing library                  : VirtualDubMod build 2178/release
Video
ID                               : 0
Format                           : MPEG-4 Visual
Format profile                   : Advanced Simple@L5
Format settings, BVOP            : Yes
Format settings, QPel            : No
Format settings, GMC             : No warppoints
Format settings, Matrix          : Custom
Codec ID                         : XVID
Codec ID/Hint                    : XviD
Duration                         : 1h 34mn
Bit rate                         : 905 Kbps
Width                            : 576 pixels
Height                           : 320 pixels
Display aspect ratio             : 16:9
Frame rate                       : 25.000 fps
Color space                      : YUV
Chroma subsampling               : 4:2:0
Bit depth                        : 8 bits
Scan type                        : Progressive
Bits/(Pixel*Frame)               : 0.196
Stream size                      : 609 MiB (87%)
Writing library                  : XviD 1.2.1 (UTC 2008-12-04)
Audio
ID                               : 1
Format                           : MPEG Audio
Format version                   : Version 1
Format profile                   : Layer 3
Mode                             : Joint stereo
Codec ID                         : 55
Codec ID/Hint                    : MP3
Duration                         : 1h 34mn
Bit rate mode                    : Constant
Bit rate                         : 128 Kbps
Channel(s)                       : 2 channels
Sampling rate                    : 44.1 KHz
Stream size                      : 86.2 MiB (12%)
Alignment                        : Split accross interleaves
Interleave, duration             : 80 ms (2.00 video frames)
Interleave, preload duration     : 500 ms

Screen : 
http://imageshack.us/m/857/4015/londonriver2009s1.jpg 
http://imageshack.us/m/171/3931/londonriver2009s2.jpg 
http://imageshack.us/m/190/7561/londonriver2009s3.jpg 
http://imageshack.us/m/269/6143/londonriver2009s4.jpg 
http://imageshack.us/m/819/8489/londonriver2009s5.jpg